<?xml version="1.0" encoding="UTF-8" standalone="no"?>
<svg
   xmlns:dc="http://purl.org/dc/elements/1.1/"
   xmlns:cc="http://creativecommons.org/ns#"
   xmlns:rdf="http://www.w3.org/1999/02/22-rdf-syntax-ns#"
   xmlns:svg="http://www.w3.org/2000/svg"
   xmlns="http://www.w3.org/2000/svg"
   xmlns:sodipodi="http://sodipodi.sourceforge.net/DTD/sodipodi-0.dtd"
   xmlns:inkscape="http://www.inkscape.org/namespaces/inkscape"
   width="210mm"
   height="297mm"
   viewBox="0 0 210 297"
   version="1.1"
   id="svg2032"
   inkscape:version="1.0.1 (c497b03c, 2020-09-10)"
   sodipodi:docname="beginner.svg">
  <defs
     id="defs2026" />
  <sodipodi:namedview
     id="base"
     pagecolor="#ffffff"
     bordercolor="#666666"
     borderopacity="1.0"
     inkscape:pageopacity="0.0"
     inkscape:pageshadow="2"
     inkscape:zoom="0.35"
     inkscape:cx="681.42857"
     inkscape:cy="891.42857"
     inkscape:document-units="mm"
     inkscape:current-layer="layer1"
     inkscape:document-rotation="0"
     showgrid="false"
     inkscape:window-width="1252"
     inkscape:window-height="1000"
     inkscape:window-x="0"
     inkscape:window-y="23"
     inkscape:window-maximized="0"
     units="mm" />
  <metadata
     id="metadata2029">
    <rdf:RDF>
      <cc:Work
         rdf:about="">
        <dc:format>image/svg+xml</dc:format>
        <dc:type
           rdf:resource="http://purl.org/dc/dcmitype/StillImage" />
        <dc:title></dc:title>
      </cc:Work>
    </rdf:RDF>
  </metadata>
  <g
     inkscape:label="Layer 1"
     inkscape:groupmode="layer"
     id="layer1">
    <g
       id="g1256"
       transform="matrix(4.1099061,0,0,4.1099061,-448.07279,-911.9414)">
      <g
         id="water_glass_6_">
        <g
           id="g1245">
          <g
             id="glas_bubles_12_">
            <g
               id="g1214">
              <path
                 class="st0"
                 d="m 134.9,245 c -6.6,0 -13.7,-1.5 -13.7,-4.7 0,-3.2 7.1,-4.7 13.7,-4.7 6.6,0 13.7,1.5 13.7,4.7 -0.1,3.2 -7.1,4.7 -13.7,4.7 z m 0,-7.4 c -7.7,0 -11.7,1.9 -11.7,2.7 0,0.8 4,2.7 11.7,2.7 7.7,0 11.7,-1.9 11.7,-2.7 0,-0.8 -4,-2.7 -11.7,-2.7 z"
                 id="path1212" />
            </g>
            <g
               id="g1218">
              <path
                 class="st0"
                 d="m 134.9,278.2 c -4.7,0 -8.5,-1.1 -10,-3 l 1.6,-1.3 c 0.9,1.1 3.9,2.3 8.5,2.3 3.9,0 7,-0.9 8.5,-2.3 l 1.4,1.4 c -2,1.9 -5.5,2.9 -10,2.9 z"
                 id="path1216" />
            </g>
            <g
               id="g1222">
              <path
                 class="st0"
                 d="m 125.7,275.6 c -0.5,0 -0.9,-0.4 -1,-0.9 l -3,-33.3 c 0,-0.6 0.4,-1 0.9,-1.1 0.6,0 1,0.4 1.1,0.9 l 3,33.3 c 0,0.6 -0.4,1 -1,1.1 0,0 0,0 0,0 z"
                 id="path1220" />
            </g>
            <g
               id="g1226">
              <path
                 class="st0"
                 d="m 144.1,275.6 c 0,0 -0.1,0 0,0 -0.6,-0.1 -1,-0.5 -1,-1.1 l 3,-33.3 c 0,-0.5 0.5,-1 1.1,-0.9 0.5,0 1,0.5 0.9,1.1 l -3,33.3 c -0.1,0.5 -0.5,0.9 -1,0.9 z"
                 id="path1224" />
            </g>
            <g
               id="g1232">
              <g
                 id="g1230">
                <path
                   class="st0"
                   d="m 138.4,277.2 c 0,0 0,0 0,0 -0.6,0 -1,-0.5 -1,-1 l 0.6,-20.8 c 0,-0.2 0.1,-0.4 0.2,-0.6 0.1,-0.1 1.9,-2.6 4.4,-2.8 1.4,-0.1 2.7,0.4 3.9,1.6 0.4,0.4 0.4,1 0,1.4 -0.4,0.4 -1,0.4 -1.4,0 -0.8,-0.8 -1.6,-1.1 -2.4,-1.1 -1.3,0.1 -2.4,1.2 -2.8,1.7 l -0.6,20.4 c 0.1,0.8 -0.4,1.2 -0.9,1.2 z"
                   id="path1228" />
              </g>
            </g>
            <g
               id="g1238">
              <g
                 id="g1236">
                <path
                   class="st0"
                   d="m 131.6,277.2 c -0.5,0 -1,-0.4 -1,-1 L 130,255.8 c -0.4,-0.5 -1.5,-1.6 -2.8,-1.7 -0.8,-0.1 -1.6,0.3 -2.4,1.1 -0.4,0.4 -1,0.4 -1.4,0 -0.4,-0.4 -0.4,-1 0,-1.4 1.2,-1.2 2.5,-1.8 3.9,-1.6 2.6,0.2 4.4,2.7 4.4,2.8 0.1,0.2 0.2,0.4 0.2,0.6 l 0.6,20.8 c 0.1,0.3 -0.3,0.8 -0.9,0.8 0,0 0,0 0,0 z"
                   id="path1234" />
              </g>
            </g>
          </g>
          <g
             id="g1243">
            <path
               class="st0"
               d="m 131,256.5 c -0.3,0 -0.6,-0.1 -0.8,-0.3 -0.4,-0.4 -0.3,-1 0.1,-1.4 1.7,-1.4 5.7,-3.3 9.1,0 0.4,0.4 0.4,1 0,1.4 -0.4,0.4 -1,0.4 -1.4,0 -2.9,-2.9 -6.2,-0.1 -6.3,0 -0.2,0.2 -0.4,0.3 -0.7,0.3 z"
               id="path1241" />
          </g>
        </g>
        <g
           id="g1249">
          <path
             class="st3"
             d="M 143.1,256"
             id="path1247" />
        </g>
        <g
           id="g1253">
          <path
             class="st3"
             d="M 143.4,251.1"
             id="path1251" />
        </g>
      </g>
    </g>
  </g>
</svg>
