<?xml version="1.0" encoding="UTF-8" standalone="no"?>
<svg
   xmlns:dc="http://purl.org/dc/elements/1.1/"
   xmlns:cc="http://creativecommons.org/ns#"
   xmlns:rdf="http://www.w3.org/1999/02/22-rdf-syntax-ns#"
   xmlns:svg="http://www.w3.org/2000/svg"
   xmlns="http://www.w3.org/2000/svg"
   xmlns:sodipodi="http://sodipodi.sourceforge.net/DTD/sodipodi-0.dtd"
   xmlns:inkscape="http://www.inkscape.org/namespaces/inkscape"
   width="210mm"
   height="297mm"
   viewBox="0 0 210 297"
   version="1.1"
   id="svg2049"
   inkscape:version="1.0.1 (c497b03c, 2020-09-10)"
   sodipodi:docname="martini.svg">
  <defs
     id="defs2043" />
  <sodipodi:namedview
     id="base"
     pagecolor="#ffffff"
     bordercolor="#666666"
     borderopacity="1.0"
     inkscape:pageopacity="0.0"
     inkscape:pageshadow="2"
     inkscape:zoom="0.35"
     inkscape:cx="400"
     inkscape:cy="560"
     inkscape:document-units="mm"
     inkscape:current-layer="layer1"
     inkscape:document-rotation="0"
     showgrid="false"
     inkscape:window-width="1252"
     inkscape:window-height="1035"
     inkscape:window-x="0"
     inkscape:window-y="23"
     inkscape:window-maximized="0" />
  <metadata
     id="metadata2046">
    <rdf:RDF>
      <cc:Work
         rdf:about="">
        <dc:format>image/svg+xml</dc:format>
        <dc:type
           rdf:resource="http://purl.org/dc/dcmitype/StillImage" />
        <dc:title></dc:title>
      </cc:Work>
    </rdf:RDF>
  </metadata>
  <g
     inkscape:label="Layer 1"
     inkscape:groupmode="layer"
     id="layer1">
    <g
       id="g1017"
       transform="matrix(0.26458333,0,0,0.26458333,-32.874146,73.909134)">
      <g
         id="martini_bonus_6_">
        <g
           id="g942">
          <g
             id="g940">
            <path
               class="st0"
               d="m 495.9,168 c -0.3,0 -0.5,-0.1 -0.7,-0.3 -0.4,-0.4 -0.4,-1 0,-1.4 l 14.1,-13.4 c 0.4,-0.4 1,-0.4 1.4,0 0.4,0.4 0.4,1 0,1.4 l -14.1,13.4 c -0.2,0.2 -0.5,0.3 -0.7,0.3 z"
               id="path938" />
          </g>
        </g>
        <g
           id="g968">
          <g
             id="g946">
            <path
               class="st2"
               d="M 504.4,149.7"
               id="path944" />
          </g>
          <g
             id="g950">
            <path
               class="st2"
               d="M 506.5,147.8"
               id="path948" />
          </g>
          <g
             id="g954">
            <path
               class="st0"
               d="m 500.1,154.2 c -0.3,0 -0.6,-0.1 -0.8,-0.3 -0.4,-0.4 -0.3,-1 0.1,-1.4 l 4,-3.5 c 0.4,-0.4 1,-0.3 1.4,0.1 0.4,0.4 0.3,1 -0.1,1.4 l -4,3.5 c -0.1,0.1 -0.3,0.2 -0.6,0.2 z"
               id="path952" />
          </g>
          <g
             id="g958">
            <path
               class="st3"
               d="M 504.2,149.7"
               id="path956" />
          </g>
          <g
             id="g962">
            <path
               class="st3"
               d="M 506.4,147.7"
               id="path960" />
          </g>
          <g
             id="g966">
            <path
               class="st0"
               d="m 506.9,148.2 c -0.3,0 -0.6,-0.1 -0.7,-0.3 -0.4,-0.4 -0.3,-1 0.1,-1.4 l 5.2,-4.6 c 0.4,-0.4 1,-0.3 1.4,0.1 0.4,0.4 0.3,1 -0.1,1.4 l -5.2,4.6 c -0.2,0.2 -0.5,0.2 -0.7,0.2 z"
               id="path964" />
          </g>
        </g>
        <g
           id="g974">
          <g
             id="g972">
            <path
               class="st0"
               d="m 496.7,162.7 c -0.3,0 -0.5,-0.1 -0.7,-0.3 -0.4,-0.4 -0.4,-1 0,-1.4 l 2.3,-2.2 c 0.4,-0.4 1,-0.4 1.4,0 0.4,0.4 0.4,1 0,1.4 l -2.3,2.2 c -0.2,0.2 -0.5,0.3 -0.7,0.3 z"
               id="path970" />
          </g>
        </g>
        <g
           id="g980">
          <g
             id="g978">
            <path
               class="st0"
               d="m 493.9,168 c -0.2,0 -0.5,-0.1 -0.7,-0.3 l -14.1,-13.4 c -0.4,-0.4 -0.4,-1 0,-1.4 0.4,-0.4 1,-0.4 1.4,0 l 14.1,13.4 c 0.4,0.4 0.4,1 0,1.4 -0.2,0.2 -0.5,0.3 -0.7,0.3 z"
               id="path976" />
          </g>
        </g>
        <g
           id="g986">
          <g
             id="g984">
            <path
               class="st0"
               d="m 496.2,187.8 c -0.5,0 -0.9,-0.3 -1,-0.8 -0.1,-0.5 -2.5,-11.2 0,-20.6 0.1,-0.5 0.7,-0.9 1.2,-0.7 0.5,0.1 0.9,0.7 0.7,1.2 -2.4,8.9 0,19.5 0,19.6 0.1,0.5 -0.2,1.1 -0.8,1.2 0,0.1 0,0.1 -0.1,0.1 z"
               id="path982" />
          </g>
        </g>
        <g
           id="g992">
          <g
             id="g990">
            <path
               class="st0"
               d="m 493.4,187.8 c -0.1,0 -0.1,0 -0.2,0 -0.5,-0.1 -0.9,-0.7 -0.8,-1.2 0,-0.1 2.4,-10.7 0,-19.6 -0.1,-0.5 0.2,-1.1 0.7,-1.2 0.5,-0.1 1.1,0.2 1.2,0.7 2.5,9.3 0.1,20.1 0,20.6 0,0.4 -0.4,0.7 -0.9,0.7 z"
               id="path988" />
          </g>
        </g>
        <g
           id="g996">
          <path
             class="st2"
             d="M 502.6,147.8"
             id="path994" />
        </g>
        <g
           id="g1000">
          <path
             class="st0"
             d="m 494.9,158.2 c -8.3,0 -16.7,-2.1 -16.7,-6 0,-4 8.4,-6 16.7,-6 2.3,0 4.5,0.2 6.6,0.5 0.5,0.1 0.9,0.6 0.8,1.1 -0.1,0.5 -0.6,0.9 -1.1,0.8 -2,-0.3 -4.1,-0.4 -6.3,-0.4 -9,0 -14.7,2.4 -14.7,4 0,1.6 5.7,4 14.7,4 9,0 14.7,-2.4 14.7,-4 0,-0.4 -0.4,-0.8 -0.8,-1.1 -0.4,-0.3 -0.5,-1 -0.2,-1.4 0.3,-0.4 1,-0.5 1.4,-0.2 1,0.8 1.5,1.7 1.5,2.7 0.1,3.9 -8.3,6 -16.6,6 z"
             id="path998" />
        </g>
        <g
           id="g1004">
          <path
             class="st0"
             d="m 494.9,191.1 c -5,0 -10.5,-1.3 -10.5,-4 0,-2.7 4.9,-3.6 6.9,-3.8 0.5,-0.1 1,0.3 1.1,0.9 0.1,0.6 -0.3,1 -0.9,1.1 -3.8,0.5 -5.1,1.5 -5.2,1.8 0.1,0.6 3.1,2 8.5,2 5.4,0 8.4,-1.4 8.5,-2 0,-0.3 -1.4,-1.4 -5.2,-1.8 -0.5,-0.1 -0.9,-0.6 -0.9,-1.1 0.1,-0.5 0.6,-0.9 1.1,-0.9 2.1,0.3 7,1.1 7,3.8 0.1,2.7 -5.4,4 -10.4,4 z"
             id="path1002" />
        </g>
        <g
           id="g1008">
          <path
             class="st0"
             d="m 494.9,168.3 c -0.9,0 -1.7,-0.4 -2.3,-1.1 -0.4,-0.4 -0.3,-1 0.1,-1.4 0.4,-0.4 1,-0.3 1.4,0.1 0.4,0.5 1.2,0.5 1.6,-0.1 0.3,-0.5 0.9,-0.6 1.4,-0.3 0.5,0.3 0.6,0.9 0.3,1.4 -0.6,0.9 -1.5,1.4 -2.5,1.4 z"
             id="path1006" />
        </g>
        <g
           id="g1014">
          <g
             id="g1012">
            <path
               class="st0"
               d="m 505.1,151.2 c -0.6,0 -1.2,-0.2 -1.5,-0.6 -0.4,-0.5 -0.6,-1.2 -0.5,-1.9 0.1,-0.6 0.4,-1.2 0.9,-1.6 1.1,-1 2.7,-1.1 3.5,-0.2 0.4,0.5 0.6,1.2 0.5,1.9 -0.1,0.6 -0.4,1.2 -0.9,1.6 -0.6,0.5 -1.3,0.8 -2,0.8 z m 0.9,-3 c -0.2,0 -0.4,0.1 -0.7,0.3 -0.3,0.3 -0.4,0.6 -0.3,0.7 h 0.1 c 0.1,0 0.4,-0.1 0.6,-0.3 0.3,-0.3 0.3,-0.6 0.3,-0.7 0,0 0,0 0,0 z"
               id="path1010" />
          </g>
        </g>
      </g>
    </g>
  </g>
</svg>
